<?xml version="1.0"?><svg version="1.2" baseProfile="tiny-ps" viewBox="0 0 180 180" xmlns="http://www.w3.org/2000/svg" xmlns:xlink="http://www.w3.org/1999/xlink"><title>GreekWagyu</title><g><g fill="#fbfbfb" transform="matrix(.1 0 0 -.1 0 180)"><path d="M745 1786c-184-36-330-113-467-244l-67-65-52-75-52-74-32-77c-18-42-41-107-51-146l-18-70V895l1-140 21-80 22-80 45-92 46-92 59-76 60-75 75-60 76-59 92-46 92-45 80-22 80-22h290l80 22 80 22 92 45 92 46 76 59 75 60 60 75 59 76 46 92 45 92 22 80 22 80v290l-22 80-22 80-45 92-46 92-59 76-60 75-75 60-76 59-92 46-92 45-80 21-80 21-115 4-115 3-70-13z"/></g><g fill="#e3d49f" transform="matrix(.1 0 0 -.1 0 180)"><path d="M745 1786c-184-36-330-113-467-244l-67-65-52-75-52-74-32-77c-18-42-41-107-51-146l-18-70V895l1-140 21-80 22-80 45-92 46-92 59-76 60-75 75-60 76-59 92-46 92-45 80-22 80-22h290l80 22 80 22 92 45 92 46 76 59 75 60 60 75 59 76 46 92 45 92 22 80 22 80v290l-22 80-22 80-45 92-46 92-59 76-60 75-75 60-76 59-92 46-92 45-80 21-80 21-115 4-115 3-70-13zm-91-478c22-6 46-16 52-22l12-11 6-87c4-49 5-88 2-88s-17 25-31 55l-26 54-40 35-40 34-45 12-44 13-50-6-49-6-38-20-39-19-42-46-43-47-20-46c-11-26-25-79-31-120l-12-73 11-70 11-70 30-63 29-62 42-43 43-44 53-24 52-24 67-1 66-1 26 17 26 17 15 36 15 36-4 73-3 73-17 16-16 16-46 5c-26 3-49 10-52 14l-5 9h294l-6-6c-4-4-17-12-29-18l-23-12-5-134-5-133-60-13c-33-7-96-16-140-20l-80-7-60 13c-33 6-88 25-122 41l-61 29-46 51-45 50-21 57c-12 31-26 83-30 115l-8 57 9 65c11 81 33 137 77 198l34 47 44 31c56 38 104 59 174 76l55 13 74-5c40-3 92-10 115-17z"/></g><g fill="#c6ae6f" transform="matrix(.1 0 0 -.1 0 180)"><path d="M745 1786c-184-36-330-113-467-244l-67-65-52-75-52-74-32-77c-18-42-41-107-51-146l-18-70V895l1-140 21-80 22-80 45-92 46-92 59-76 60-75 75-60 76-59 92-46 92-45 80-22 80-22h290l80 22 80 22 92 45 92 46 76 59 75 60 60 75 59 76 46 92 45 92 22 80 22 80v290l-22 80-22 80-45 92-46 92-59 76-60 75-75 60-76 59-92 46-92 45-80 21-80 21-115 4-115 3-70-13zm-115-472 69-15 9-12 10-12 6-90 6-90-10 15c-6 8-25 40-43 70l-32 54-49 30-48 30h-68l-68-1-45-22-46-22-37-41c-20-22-47-64-59-92l-24-51-10-73-9-72 10-73 10-72 29-62 29-61 55-50 54-50 47-16 48-16h111l32 20 32 19 12 43 11 43-4 59-4 59-28 24-27 23h-79v20h148l147-1-20-14c-11-8-26-19-33-26l-13-11 2-126 1-126-58-13c-33-7-102-15-154-19l-95-7-62 16c-35 9-84 27-110 41l-48 24-41 44-42 43-26 52-26 53-12 74-11 74 11 66 11 66 24 53 24 52 41 46 41 45 59 32c33 17 83 38 113 46l54 15h58l58 1 69-16zm594-19-18-13 44-111c24-61 46-111 50-111 8 0 70 189 70 213v16l-17 10-18 10 17 1h18l6-25 6-25-7-27-6-28 16 20 16 20-7-25c-4-14-24-70-46-125l-38-100 6 32 6 33-16-6-15-6-25 49-25 48-39 34-39 34 5 21 5 21-8-7-8-8-16 23c-9 12-15 25-13 30 1 4-5 7-15 7h-16l15-17c16-18 50-93 43-93-3 0-16 22-30 49l-25 50-20 6c-11 3-20 9-20 13v7l91-3 91-3-18-14zm372-327c-9-22-15-42-13-44 2-3 12 16 22 41 9 26 19 44 21 42 3-2-17-64-43-138l-47-134-4 18-4 17-10-6-10-7 7 24c4 13 23 67 42 119s37 104 41 115l6 19 4-12c2-7-3-31-12-54zm-500-352h21v-10c0-6 1-22 2-36l2-25 15 25 15 25-5-18c-4-11-9-30-12-43l-6-24h-35l-37 95c-43 113-45 127-8 60l28-50 20 1z"/></g><g fill="#a98b4f" transform="matrix(.1 0 0 -.1 0 180)"><path d="M745 1786c-184-36-330-113-467-244l-67-65-52-75-52-74-32-77c-18-42-41-107-51-146l-18-70V895l1-140 21-80 22-80 45-92 46-92 59-76 60-75 75-60 76-59 92-46 92-45 80-22 80-22h290l80 22 80 22 92 45 92 46 76 59 75 60 60 75 59 76 46 92 45 92 22 80 22 80v290l-22 80-22 80-45 92-46 92-59 76-60 75-75 60-76 59-92 46-92 45-80 21-80 21-115 4-115 3-70-13zm-85-475c19-6 40-14 47-19l11-7 7-93 8-92h-9c-5 0-22 28-39 62l-30 62-43 31-43 30-73 3-73 4-52-22-52-23-39-44-39-45-23-57-22-56V795l23-57 22-58 49-53 48-52 46-24 47-23 58-5 58-6 37 13 37 12 16 24 16 25 1 84 1 84-21 21-21 21-48 7-48 7-1 9-1 9 143 1 144 1 4-7c3-4-6-12-18-19-13-7-26-17-31-23l-7-11 1-125 2-125-89-18-89-17-95 3-95 4-50 17c-27 10-71 31-97 48l-48 30-36 49c-20 27-45 73-56 101l-20 52-5 68-6 67 13 63 12 62 25 49c13 28 45 72 70 98l46 49 53 26c29 14 74 32 101 40l48 13 95-3c52-3 111-9 130-15zm310-1v-10l-27 1h-28l20 9c27 12 35 12 35 0zm274 1c4 0-1-9-13-18l-20-18 43-110 44-110 6 15c39 102 66 185 66 200v19l-17 10c-27 15-15 17 67 10 41-3 66-6 54-7l-21-2-20-22-21-23-47-121-46-122 36-87c40-95 43-123 6-45l-24 50-8-5-8-5-6 21c-8 24-85 100-96 93-6-4-32 52-84 184l-17 42-29 24c-16 14-29 26-29 28 0 3 164 2 184-1zm-487-7c-3-3-12-4-19-1l-13 5 19 1c11 1 17-2 13-5zm894-208c5 3 9 2 9-2 0-10-128-377-145-417l-14-32-1 17c0 9-5 18-11 20l-10 3 54 155c30 85 65 182 77 215l23 60 5-13 4-12 9 6zM920 987l11-38 9 6 9 5 6-20 6-20-7-12-8-13 17 14c22 18 33 8 13-12-17-17-11-28 10-20l14 5-6 9-5 9h9c5 0 14 10 21 23l12 22-7-20c-4-11-8-29-11-40l-4-20 20-13 21-12v14c0 8-5 16-12 18l-12 4 11 7 10 6 43-110 43-110 11 4c5 2 16 23 24 47l15 44 8-21 8-22-35-105-36-106h-36l-30 78c-64 162-172 450-172 458 0 17 20-21 30-59zm432-264c6-16 12-30 13-33 13-51 22-59 44-37l12 12-7-20-7-20 8 7 7 7 20-22c11-12 17-16 13-9l-6 12h10c6 0 11-6 12-12 0-7 5-2 10 11 20 49 18 12-2-47l-21-62h-27l-15 28c-13 25-86 202-86 209 0 12 12-2 22-24z"/></g><g fill="#594e3b" transform="matrix(.1 0 0 -.1 0 180)"><path d="M745 1786c-184-36-330-113-467-244l-67-65-52-75-52-74-32-77c-18-42-41-107-51-146l-18-70V895l1-140 21-80 22-80 45-92 46-92 59-76 60-75 75-60 76-59 92-46 92-45 80-22 80-22h290l80 22 80 22 92 45 92 46 76 59 75 60 60 75 59 76 46 92 45 92 21 80 20 80 6 97 6 97-13 78c-6 43-23 114-37 158l-25 79-13-34c-19-52-203-575-229-650l-23-65-20-3-20-3-51 125c-29 69-62 151-73 183-12 32-25 62-29 66l-7 8-58-168c-32-92-62-178-67-191l-8-23-21 3-21 3-34 85c-18 47-80 208-138 358-57 150-112 285-121 298l-17 26-31 13c-39 17-41 17 106 19 115 1 147-5 86-18l-32-6 6-34c4-27 148-402 212-551l17-40 53 135 54 135-71 169-72 169-28 16c-15 9-28 19-28 24v7h200v-9c0-5-7-11-15-15l-15-5v-18c0-21 72-203 80-203 6 0 70 190 70 207 0 7-9 15-20 18s-20 11-20 16v9l85-1 85-1v-8c0-5-14-11-30-15l-31-7-15-23c-8-13-35-75-59-137l-44-114 71-172 72-171 7 5c4 2 22 48 40 102 17 53 58 170 90 260l59 163v78l-19 11c-11 5-30 10-42 10h-22l6 7c4 4 33 5 64 4l56-3-28 49c-15 26-52 79-82 116l-55 68-74 59-75 59-92 46-92 45-80 21-80 21-115 4-115 3-70-13zm-90-474 60-17 7-60c4-33 9-77 12-97l4-38h-25l-22 49c-29 61-61 95-113 122l-42 21-72-4-72-5-43-25c-75-44-117-105-145-210l-14-53V845l14-50c18-70 51-130 97-180l39-43 53-23 52-23h66l66-1 25 14 26 13 11 25 11 24v166l-18 16-17 16-49 8-48 8-2 10-1 10h288l4-12 5-13h-32l-16-25-16-24 3-118 4-118-80-17-80-16-85-1-86-1-57 15c-80 21-132 49-184 101l-45 45-30 67-31 67-5 91-5 90 18 60 17 59 29 47c58 91 145 154 252 183l52 14h80l80-1 60-16z"/></g><g fill="#050303" transform="matrix(.1 0 0 -.1 0 180)"><path d="M745 1786c-184-36-330-113-467-244l-67-65-52-75-52-74-32-77c-18-42-41-107-51-146l-18-70V895l1-140 21-80 22-80 45-92 46-92 59-76 60-75 75-60 76-59 92-46 92-45 80-22 80-22h290l80 22 80 22 92 45 92 46 76 59 75 60 60 75 59 76 46 92 45 92 21 80 21 80 5 105 5 105-16 86c-9 47-24 110-35 140l-19 54-23-50c-19-42-152-414-222-622l-21-62-18-4-19-5-14 21c-7 12-44 98-81 191l-67 169-44-118c-23-65-53-149-65-186l-22-68-13-5c-7-3-19-3-25-1l-13 5-59 153c-32 83-99 255-148 380l-90 229-34 14c-19 8-34 19-34 24v10h260v-20l-29-6-30-6-4-12c-3-7 5-41 18-77 33-96 196-503 204-511l6-7 49 129 49 129-48 113c-26 62-58 138-72 169l-25 57-24 11c-13 6-24 15-24 21v10h200v-10c0-6-7-13-15-16-8-4-15-11-15-18 0-16 74-196 81-196 3 0 20 44 37 98l31 97-20 14c-10 7-19 17-19 22v9h172l-4-12c-3-7-14-14-26-16l-22-3-19-25c-20-26-101-224-101-248 0-7 31-86 69-176l68-162 7 11c4 6 32 82 61 169 29 86 70 205 91 263l37 106-7 26-6 26-32 9c-17 4-33 13-36 20l-4 12h56c31 0 56 3 56 6 0 13-45 81-98 147l-54 68-74 59-75 59-92 46-92 45-80 21-80 21-115 4-115 3-70-13zm-102-467 57-12 10-13 11-12 9-88c5-48 7-91 4-96l-5-8-10 6c-5 3-16 22-24 42-9 20-27 51-42 70l-26 34-51 24-51 24h-84l-55-20-54-21-42-45-41-45-20-46c-11-26-25-79-31-120l-12-73 11-70 11-70 29-63c17-34 42-76 57-94l27-32 64-32 64-31 75 4 76 3 22 23 23 23v191l-19 14-20 14h-32c-42 0-64 9-64 26v14h300v-30l-25-10-25-10-2-37c-1-21-2-83-3-138V515l-45-7c-25-4-83-12-129-19l-84-11-76 11-75 12-53 24-52 24-49 45-49 46-31 63-31 62-10 67-11 66 9 65 9 65 21 47c11 26 37 68 56 95l35 47 53 37 54 37 59 19 59 19h86l86 1 56-11z"/></g></g></svg>